# xmcd
#
# Track frame offsets:
# 150
# 21794
# 43670
# 65601
# 90610
# 106830
# 132326
#
# Disc length: 2026 seconds
#
# Revision: 0
# Processed by: cddbd v1.5.1PL0 Copyright (c) Steve Scherf et al.
# Submitted via: Audion 3.0.2 (http://www.panic.com/audion/)
#
DISCID=5707e807
DTITLE=Julian Shaw - Flat Out
DYEAR=1900
DGENRE=
TTITLE0=A Brothers Love
TTITLE1=Don't Shut Your Eyes
TTITLE2=Flat Out
TTITLE3=Forgetting Something Old
TTITLE4=From Moscow With Love
TTITLE5=Seductress
TTITLE6=Spider Monkey
EXTD=
EXTT0=
EXTT1=
EXTT2=
EXTT3=
EXTT4=
EXTT5=
EXTT6=
PLAYORDER=
